<svg data-name="Layer 1" xmlns="http://www.w3.org/2000/svg" viewBox="0 0 64.8 74.8"><g data-name="2" fill="#202224" stroke="#26282b" stroke-miterlimit="10" stroke-width=".5"><path d="M-6.9 61.5v20.8l-7.2-4.2-7.2 4.2 18 10.4 18-10.4-7.2-4.2-7.2 4.2V61.5l18-10.4v8.3l7.2 4.2V42.8l-18-10.4v8.3l7.2 4.2-18 10.4-18-10.4 7.2-4.2v-8.3l-18 10.4v20.8l7.2-4.2v-8.3l18 10.4z"/><path d="M-6.9 98.9v20.8l-7.2-4.1-7.2 4.1 18 10.4 18-10.4-7.2-4.1-7.2 4.1V98.9l18-10.4v8.4l7.2 4.1V80.2l-18-10.4v8.3l7.2 4.2-18 10.4-18-10.4 7.2-4.2v-8.3l-18 10.4V101l7.2-4.1v-8.4l18 10.4z"/><path d="M25.5 80.2V101l-7.2-4.1-7.2 4.1 18 10.4 18-10.4-7.2-4.1-7.2 4.1V80.2l18-10.4v8.3l7.2 4.2V61.5l-18-10.4v8.3l7.2 4.2-18 10.4-18-10.4 7.2-4.2v-8.3L.3 61.5v20.8l7.2-4.2v-8.3l18 10.4zm0-74.8v20.8L18.3 22l-7.2 4.2 18 10.4 18-10.4-7.2-4.2-7.2 4.2V5.4L50.7-5v8.3l7.2 4.1v-20.7l-18-10.4v8.3l7.2 4.1-18 10.4-18-10.4 7.2-4.1v-8.3L.3-13.3V7.4l7.2-4.1V-5l18 10.4z"/><path d="M25.5 42.8v20.8l-7.2-4.2-7.2 4.2 18 10.4 18-10.4-7.2-4.2-7.2 4.2V42.8l18-10.4v8.3l7.2 4.2V24.1l-18-10.4V22l7.2 4.2-18 10.4-18-10.4 7.2-4.2v-8.3L.3 24.1v20.8l7.2-4.2v-8.3l18 10.4z"/><path d="M-6.9 24.1v20.8l-7.2-4.2-7.2 4.2 18 10.4 18-10.4-7.2-4.2-7.2 4.2V24.1l18-10.4V22l7.2 4.2V5.4L7.5-5v8.3l7.2 4.1-18 10.4-18-10.4 7.2-4.1V-5l-18 10.4v20.8l7.2-4.2v-8.3l18 10.4z"/><path d="M-6.9-13.3V7.4l-7.2-4.1-7.2 4.1 18 10.4 18-10.4-7.2-4.1L.3 7.4v-20.7l18-10.4v8.3l7.2 4.1v-20.8l-18-10.4v8.4l7.2 4.1-18 10.4-18-10.4 7.2-4.1v-8.4l-18 10.4v20.8l7.2-4.1v-8.3l18 10.4zm64.8 74.8v20.8l-7.2-4.2-7.2 4.2 18 10.4 18-10.4-7.2-4.2-7.2 4.2V61.5l18-10.4v8.3l7.2 4.2V42.8l-18-10.4v8.3l7.2 4.2-18 10.4-18-10.4 7.2-4.2v-8.3l-18 10.4v20.8l7.2-4.2v-8.3l18 10.4z"/><path d="M57.9 98.9v20.8l-7.2-4.1-7.2 4.1 18 10.4 18-10.4-7.2-4.1-7.2 4.1V98.9l18-10.4v8.4l7.2 4.1V80.2l-18-10.4v8.3l7.2 4.2-18 10.4-18-10.4 7.2-4.2v-8.3l-18 10.4V101l7.2-4.1v-8.4l18 10.4zm0-74.8v20.8l-7.2-4.2-7.2 4.2 18 10.4 18-10.4-7.2-4.2-7.2 4.2V24.1l18-10.4V22l7.2 4.2V5.4L72.3-5v8.3l7.2 4.1-18 10.4-18-10.4 7.2-4.1V-5l-18 10.4v20.8l7.2-4.2v-8.3l18 10.4z"/><path d="M57.9-13.3V7.4l-7.2-4.1-7.2 4.1 18 10.4 18-10.4-7.2-4.1-7.2 4.1v-20.7l18-10.4v8.3l7.2 4.1v-20.8l-18-10.4v8.4l7.2 4.1-18 10.4-18-10.4 7.2-4.1v-8.4l-18 10.4v20.8l7.2-4.1v-8.3l18 10.4z"/></g></svg>