<svg xmlns="http://www.w3.org/2000/svg" viewBox="0 0 32 32"><path d="M24.8 30.8c-.2 0-.4-.1-.6-.2l-8.2-6-8.2 6c-.4.3-1.1.2-1.4-.2-.2-.3-.2-.6-.1-.9l3.2-9.7-8.2-6c-.4-.3-.5-.9-.2-1.4 0-.2.3-.4.6-.4h10.2L15 2.3c.2-.5.7-.8 1.3-.6.3.1.6.3.7.6l3.1 9.7h10.2c.6 0 1 .5 1 1 0 .3-.2.6-.4.8l-8.2 6 3.1 9.7c.1.4 0 .9-.4 1.1-.2.1-.4.2-.6.2zM16 22.4c.2 0 .4.1.6.2l6.3 4.6-2.4-7.4c-.1-.4 0-.9.4-1.1l6.3-4.6h-7.8c-.4 0-.8-.3-1-.7L16 5.9l-2.4 7.4c-.1.4-.5.7-.9.7H4.8l6.3 4.6c.4.3.5.7.4 1.1l-2.4 7.4 6.3-4.6c.2-.1.4-.1.6-.1z" fill="#505050"/></svg>