<?xml version="1.0" encoding="UTF-8" standalone="no"?>
<!-- Created with Inkscape (http://www.inkscape.org/) -->

<svg
   width="210mm"
   height="297mm"
   viewBox="0 0 210 297"
   version="1.1"
   id="svg2947"
   inkscape:version="1.1.1 (3bf5ae0d25, 2021-09-20)"
   sodipodi:docname="Forum-Blue-Locked.svg"
   xmlns:inkscape="http://www.inkscape.org/namespaces/inkscape"
   xmlns:sodipodi="http://sodipodi.sourceforge.net/DTD/sodipodi-0.dtd"
   xmlns="http://www.w3.org/2000/svg"
   xmlns:svg="http://www.w3.org/2000/svg">
  <sodipodi:namedview
     id="namedview2949"
     pagecolor="#ffffff"
     bordercolor="#666666"
     borderopacity="1.0"
     inkscape:pageshadow="2"
     inkscape:pageopacity="0.0"
     inkscape:pagecheckerboard="0"
     inkscape:document-units="mm"
     showgrid="false"
     inkscape:zoom="31.566961"
     inkscape:cx="337.67901"
     inkscape:cy="520.65513"
     inkscape:window-width="1920"
     inkscape:window-height="1001"
     inkscape:window-x="1911"
     inkscape:window-y="-9"
     inkscape:window-maximized="1"
     inkscape:current-layer="layer1" />
  <defs
     id="defs2944" />
  <g
     inkscape:label="Layer 1"
     inkscape:groupmode="layer"
     id="layer1">
    <g
       id="g3063"
       transform="matrix(0.26458333,0,0,0.26458333,85.185299,134.96715)">
      <path
         d="m 13.5,21.2 a 10.49,10.49 0 1 1 7.894,-8.7"
         stroke="#e35151"
         fill="none"
         stroke-linecap="round"
         stroke-linejoin="round"
         id="path3045" />
      <path
         d="M 5,9.5 H 17 M 5,6.5 h 10 m -10,6 h 12 m -12,3 h 8"
         fill="none"
         stroke-linecap="round"
         stroke-linejoin="round"
         stroke="#a9a9a9"
         id="path3047" />
      <path
         d="m 20.5,15.5 a 2,2 0 0 0 -4,0"
         stroke="#db9856"
         fill="none"
         stroke-linecap="round"
         stroke-linejoin="round"
         id="path3049" />
      <path
         d="m 21.5,16 h -6 A 0.5,0.5 0 0 0 15,16.5 v 5 a 0.5,0.5 0 0 0 0.5,0.5 h 6 A 0.5,0.5 0 0 0 22,21.5 v -5 A 0.5,0.5 0 0 0 21.5,16 Z m -3,4 a 1,1 0 1 1 1,-1 1,1 0 0 1 -1,1 z"
         fill="#db9856"
         id="path3051" />
    </g>
    <path
       style="fill:#22d1a5;fill-opacity:1;stroke:#22d1a5;stroke-width:0.11338583;stroke-miterlimit:4;stroke-dasharray:none;stroke-opacity:1"
       d="m 332.27779,532.07307 c -0.7505,-0.0464 -1.64714,-0.206 -2.39834,-0.42682 -4.03982,-1.18756 -7.05425,-4.60022 -7.7358,-8.75778 -0.10342,-0.63088 -0.1362,-1.0475 -0.13708,-1.74232 -0.003,-2.5634 0.8229,-4.89932 2.45855,-6.95159 0.33352,-0.41848 1.18116,-1.26257 1.61949,-1.61273 1.65457,-1.32172 3.51112,-2.09563 5.68632,-2.37034 0.20437,-0.0258 0.66855,-0.042 1.20379,-0.042 0.88026,0 1.18832,0.0236 1.88488,0.14448 3.57025,0.61952 6.66928,3.03705 8.12718,6.33994 0.45632,1.0338 0.72469,2.00494 0.89125,3.2251 0.0561,0.41106 0.0554,2.02669 -0.001,2.48678 -0.0235,0.19165 -0.0645,0.39518 -0.0911,0.45228 -0.13883,0.29816 -0.53224,0.36557 -0.76648,0.13134 -0.14596,-0.14597 -0.16334,-0.25916 -0.108,-0.70335 0.0593,-0.47593 0.0674,-1.68019 0.0144,-2.1453 -0.26842,-2.35726 -1.25338,-4.42313 -2.8851,-6.05123 -2.02318,-2.0187 -4.75948,-3.0677 -7.59909,-2.91323 -1.11325,0.0606 -2.13393,0.28247 -3.15738,0.68645 -4.38116,1.72937 -6.96137,6.31334 -6.17498,10.97044 0.68532,4.05856 3.78442,7.27513 7.82442,8.12101 0.73491,0.15387 1.13909,0.19188 2.04113,0.19197 0.90085,9e-5 1.26036,-0.0339 2.02744,-0.19137 0.58001,-0.11911 0.74936,-0.0806 0.88934,0.20216 0.0822,0.1661 0.0613,0.34526 -0.0566,0.4854 -0.1157,0.13751 -0.20249,0.17285 -0.64349,0.26207 -1.01574,0.20548 -1.91906,0.27017 -2.91362,0.20865 z"
       id="path3219"
       transform="scale(0.26458333)" />
  </g>
</svg>
