<?xml version="1.0" encoding="UTF-8" standalone="no"?>
<svg
   viewBox="0 0 22 22"
   version="1.1"
   id="svg12"
   sodipodi:docname="Forum-Blue-Pinned-Locked.svg"
   inkscape:version="1.1.1 (3bf5ae0d25, 2021-09-20)"
   xmlns:inkscape="http://www.inkscape.org/namespaces/inkscape"
   xmlns:sodipodi="http://sodipodi.sourceforge.net/DTD/sodipodi-0.dtd"
   xmlns="http://www.w3.org/2000/svg"
   xmlns:svg="http://www.w3.org/2000/svg">
  <defs
     id="defs16" />
  <sodipodi:namedview
     id="namedview14"
     pagecolor="#ffffff"
     bordercolor="#666666"
     borderopacity="1.0"
     inkscape:pageshadow="2"
     inkscape:pageopacity="0.0"
     inkscape:pagecheckerboard="0"
     showgrid="false"
     inkscape:zoom="36.909091"
     inkscape:cx="10.986453"
     inkscape:cy="10.932266"
     inkscape:window-width="1920"
     inkscape:window-height="1121"
     inkscape:window-x="-9"
     inkscape:window-y="-9"
     inkscape:window-maximized="1"
     inkscape:current-layer="svg12" />
  <path
     d="M13.5 21.2a10.49 10.49 0 1 1 7.894-8.7"
     stroke="#e35151"
     fill="none"
     stroke-linecap="round"
     stroke-linejoin="round"
     id="path2" />
  <path
     d="M20.5 15.5a2 2 0 0 0-4 0"
     stroke="#db9856"
     fill="none"
     stroke-linecap="round"
     stroke-linejoin="round"
     id="path4" />
  <path
     d="M21.5 16h-6a.5.5 0 0 0-.5.5v5a.5.5 0 0 0 .5.5h6a.5.5 0 0 0 .5-.5v-5a.5.5 0 0 0-.5-.5zm-3 4a1 1 0 1 1 1-1 1 1 0 0 1-1 1z"
     fill="#db9856"
     id="path6" />
  <path
     d="M14.5 3h-7A1.5 1.5 0 0 0 6 4.5 1.5 1.5 0 0 0 7.5 6H8v5l-2 2h10l-2-2V6h.5A1.5 1.5 0 0 0 16 4.5 1.5 1.5 0 0 0 14.5 3z"
     fill="#e35151"
     id="path8" />
  <path
     fill="#a9a9a9"
     d="M10.5 17l.5 3 .5-3v-4h-1v4z"
     id="path10" />
  <path
     style="fill:#22d1a5;stroke:#22b18d;stroke-width:0.03;stroke-miterlimit:4;stroke-dasharray:none"
     d="m 7.0377008,11.995552 0.9820036,-0.98228 V 8.5004784 5.9876847 H 7.6853685 c -0.5402971,0 -0.8520177,-0.1034563 -1.172574,-0.3891636 C 6.3238533,5.4301205 6.1744821,5.2051272 6.0910684,4.9632879 6.0005007,4.7007068 6.004289,4.2607956 6.0992826,4.0094438 6.2855267,3.5166443 6.7032066,3.1524248 7.2037732,3.0463212 c 0.2662921,-0.056445 7.3261618,-0.056445 7.5924538,0 0.500566,0.1061036 0.918246,0.4703231 1.10449,0.9631226 0.09499,0.2513518 0.09878,0.691263 0.0082,0.9538441 -0.152433,0.4419441 -0.494001,0.7851604 -0.941885,0.9464304 -0.127838,0.046031 -0.244267,0.060474 -0.573574,0.071155 l -0.413177,0.0134 v 2.5094994 2.5094993 l 0.982003,0.98228 0.982004,0.982281 H 11 6.0556971 Z"
     id="path870" />
  <path
     style="fill:#22d1a5;stroke:#22b18d;stroke-width:0.03;stroke-miterlimit:4;stroke-dasharray:none"
     d="M 10.539409,21.968885 C 7.2841924,21.848269 4.1957208,20.215946 2.2167765,17.570197 1.1337678,16.122269 0.40982253,14.379472 0.15157869,12.598522 0.03054157,11.763803 0.00578283,10.672558 0.09041472,9.9027094 0.44334254,6.6923252 2.080371,3.8929087 4.6871921,2.0419452 6.1903803,0.97461208 7.9448099,0.31530655 9.8766394,0.09177769 10.367647,0.03496406 11.528946,0.02711725 12.01601,0.07732213 c 1.599796,0.16490151 3.074604,0.63185332 4.44335,1.40684787 0.376798,0.2133464 1.043377,0.668167 1.422413,0.9705427 0.456093,0.3638471 1.314655,1.2192269 1.656107,1.6499671 1.406298,1.7740423 2.20327,3.7469834 2.407788,5.9605912 0.04257,0.460736 0.03492,1.536943 -0.01435,2.018473 -0.04856,0.474586 -0.07634,0.603704 -0.153154,0.711572 -0.114644,0.161003 -0.413334,0.233738 -0.5883,0.14326 -0.100718,-0.05208 -0.241219,-0.214678 -0.264025,-0.305544 -0.01006,-0.04008 0.0016,-0.298938 0.02585,-0.575242 0.06771,-0.770671 0.07462,-1.004671 0.04545,-1.539241 C 20.955876,9.7622935 20.877158,9.2429665 20.694351,8.520936 20.043406,5.9499027 18.364679,3.7233884 16.058727,2.3726571 15.735873,2.183542 15.003358,1.8277549 14.671182,1.6987168 13.043083,1.0662609 11.290871,0.86478459 9.5775862,1.113035 7.4226545,1.4252789 5.4831895,2.3983456 3.9411133,3.9409613 2.2906507,5.5920015 1.3208248,7.6351054 1.0533015,10.024631 c -0.044112,0.39401 -0.044795,1.571367 -0.00114,1.964285 0.2640296,2.376365 1.2530252,4.462202 2.8904354,6.096059 1.7692389,1.765401 4.1029076,2.796453 6.5838021,2.908828 0.862074,0.03905 1.66072,-0.02097 2.485718,-0.186792 0.49242,-0.09898 0.590122,-0.100702 0.739673,-0.01306 0.256188,0.150137 0.304607,0.509281 0.09809,0.727556 -0.114515,0.121032 -0.190084,0.148101 -0.688553,0.246644 -0.878118,0.173594 -1.6857,0.235422 -2.621915,0.200733 z"
     id="path909" />
</svg>
