<?xml version="1.0" encoding="UTF-8" standalone="no"?>
<svg
   viewBox="0 0 22 22"
   version="1.1"
   id="svg8"
   sodipodi:docname="Forum-Blue-Pinned.svg"
   inkscape:version="1.1.1 (3bf5ae0d25, 2021-09-20)"
   xmlns:inkscape="http://www.inkscape.org/namespaces/inkscape"
   xmlns:sodipodi="http://sodipodi.sourceforge.net/DTD/sodipodi-0.dtd"
   xmlns="http://www.w3.org/2000/svg"
   xmlns:svg="http://www.w3.org/2000/svg">
  <defs
     id="defs12" />
  <sodipodi:namedview
     id="namedview10"
     pagecolor="#ffffff"
     bordercolor="#666666"
     borderopacity="1.0"
     inkscape:pageshadow="2"
     inkscape:pageopacity="0.0"
     inkscape:pagecheckerboard="0"
     showgrid="false"
     inkscape:zoom="36.909091"
     inkscape:cx="10.986453"
     inkscape:cy="10.932266"
     inkscape:window-width="1920"
     inkscape:window-height="1121"
     inkscape:window-x="-9"
     inkscape:window-y="-9"
     inkscape:window-maximized="1"
     inkscape:current-layer="svg8" />
  <circle
     cx="11"
     cy="11"
     r="10.5"
     fill="none"
     stroke="#e35151"
     stroke-linecap="round"
     stroke-linejoin="round"
     id="circle2" />
  <path
     d="M14.5 3h-7A1.5 1.5 0 0 0 6 4.5 1.5 1.5 0 0 0 7.5 6H8v5l-2 2h10l-2-2V6h.5A1.5 1.5 0 0 0 16 4.5 1.5 1.5 0 0 0 14.5 3z"
     fill="#e35151"
     id="path4" />
  <path
     fill="#a9a9a9"
     d="M10.5 17l.5 3 .5-3v-4h-1v4z"
     id="path6" />
  <path
     style="fill:#22d1a5;stroke:#22b18d;stroke-width:0.03;stroke-miterlimit:4;stroke-dasharray:none"
     d="M 10.512315,21.971148 C 8.6804899,21.892663 6.8978562,21.351262 5.3119943,20.391765 2.5007479,18.690872 0.59078919,15.801469 0.12466997,12.544335 -0.02022302,11.531856 -0.00986721,10.278409 0.15175505,9.2660099 0.88806376,4.6537833 4.5196087,0.97327469 9.1169951,0.17989272 10.281392,-0.02105014 11.587877,-0.03121367 12.73399,0.15175505 c 3.471925,0.55426778 6.499606,2.77254265 8.076287,5.91721045 0.854381,1.7040509 1.231474,3.4663747 1.15802,5.4119455 -0.136827,3.624109 -2.143637,7.013079 -5.27461,8.907417 -1.5493,0.937375 -3.389902,1.50803 -5.070534,1.572051 -0.20117,0.0077 -0.43282,0.01753 -0.514779,0.02193 -0.08196,0.0044 -0.350184,-6.26e-4 -0.596059,-0.01116 z m 1.525502,-1.016805 c 2.80144,-0.274489 5.388583,-1.769425 7.076544,-4.089059 0.855165,-1.175188 1.466969,-2.606941 1.73243,-4.054259 0.211887,-1.15523 0.211744,-2.47213 -3.93e-4,-3.6220504 C 20.136457,5.3406585 17.240263,2.2469587 13.45197,1.2902836 12.110613,0.95154435 10.554676,0.90165789 9.1889746,1.1536034 7.5483943,1.4562588 6.0854669,2.125919 4.7175844,3.2003983 4.3471022,3.4914138 3.4914138,4.3471022 3.2003983,4.7175844 2.1239854,6.0879283 1.4567422,7.5457781 1.1534111,9.1900158 0.99301614,10.059453 0.94893532,11.167054 1.0406121,12.02427 c 0.3063284,2.864297 1.7698231,5.398749 4.0941042,7.090091 0.8003196,0.58238 1.7891348,1.086715 2.7295086,1.392158 1.3881894,0.450898 2.7026961,0.591944 4.1735921,0.447824 z"
     id="path866" />
  <path
     style="fill:#22d1a5;stroke:#22b18d;stroke-width:0.03;stroke-miterlimit:4;stroke-dasharray:none"
     d="m 7.0377008,11.995552 0.9820036,-0.98228 V 8.5004784 5.9876847 H 7.6853685 c -0.5402971,0 -0.8520177,-0.1034563 -1.172574,-0.3891636 C 6.3238533,5.4301205 6.1744821,5.2051272 6.0910684,4.9632879 6.0005007,4.7007068 6.004289,4.2607956 6.0992826,4.0094438 6.2855267,3.5166443 6.7032066,3.1524248 7.2037732,3.0463212 c 0.2662921,-0.056445 7.3261618,-0.056445 7.5924538,0 0.500566,0.1061036 0.918246,0.4703231 1.10449,0.9631226 0.09499,0.2513518 0.09878,0.691263 0.0082,0.9538441 -0.152433,0.4419441 -0.494001,0.7851604 -0.941885,0.9464304 -0.127838,0.046031 -0.244267,0.060474 -0.573574,0.071155 l -0.413177,0.0134 v 2.5094994 2.5094993 l 0.982003,0.98228 0.982004,0.982281 H 11 6.0556971 Z"
     id="path905" />
</svg>
