<svg xmlns="http://www.w3.org/2000/svg" viewBox="0 0 22 22"><path d="M13.5 21.2a10.49 10.49 0 1 1 7.894-8.7" stroke="#e35151" fill="none" stroke-linecap="round" stroke-linejoin="round"/><path d="M5 9.5h12m-12-3h10m-10 6h12m-12 3h8" fill="none" stroke-linecap="round" stroke-linejoin="round" stroke="#a9a9a9"/><path d="M20.5 15.5a2 2 0 0 0-4 0" stroke="#db9856" fill="none" stroke-linecap="round" stroke-linejoin="round"/><path d="M21.5 16h-6a.5.5 0 0 0-.5.5v5a.5.5 0 0 0 .5.5h6a.5.5 0 0 0 .5-.5v-5a.5.5 0 0 0-.5-.5zm-3 4a1 1 0 1 1 1-1 1 1 0 0 1-1 1z" fill="#db9856"/></svg>