<?xml version="1.0" encoding="UTF-8" standalone="no"?>
<!-- Created with Inkscape (http://www.inkscape.org/) -->

<svg
   width="210mm"
   height="297mm"
   viewBox="0 0 210 297"
   version="1.1"
   id="svg3384"
   inkscape:version="1.1.1 (3bf5ae0d25, 2021-09-20)"
   sodipodi:docname="Forum-Blue-Unread.svg"
   xmlns:inkscape="http://www.inkscape.org/namespaces/inkscape"
   xmlns:sodipodi="http://sodipodi.sourceforge.net/DTD/sodipodi-0.dtd"
   xmlns="http://www.w3.org/2000/svg"
   xmlns:svg="http://www.w3.org/2000/svg">
  <sodipodi:namedview
     id="namedview3386"
     pagecolor="#ffffff"
     bordercolor="#666666"
     borderopacity="1.0"
     inkscape:pageshadow="2"
     inkscape:pageopacity="0.0"
     inkscape:pagecheckerboard="0"
     inkscape:document-units="mm"
     showgrid="false"
     inkscape:zoom="22.207183"
     inkscape:cx="527.19429"
     inkscape:cy="721.59085"
     inkscape:window-width="1920"
     inkscape:window-height="1001"
     inkscape:window-x="1911"
     inkscape:window-y="-9"
     inkscape:window-maximized="1"
     inkscape:current-layer="layer1" />
  <defs
     id="defs3381" />
  <g
     inkscape:label="Layer 1"
     inkscape:groupmode="layer"
     id="layer1">
    <g
       id="g3437"
       transform="matrix(0.26458333,0,0,0.26458333,139.29883,188.86237)">
      <circle
         cx="11"
         cy="11"
         r="10.5"
         stroke="#e35151"
         fill="none"
         stroke-linecap="round"
         stroke-linejoin="round"
         id="circle3425" />
      <path
         d="M 5,9.5 H 17 M 5,6.5 h 10 m -10,6 h 12 m -12,3 h 8"
         fill="none"
         stroke-linecap="round"
         stroke-linejoin="round"
         stroke="#a9a9a9"
         id="path3427" />
    </g>
    <path
       style="fill:#22b18d;fill-opacity:1;stroke:#22b18d;stroke-width:0.11338583;stroke-miterlimit:4;stroke-dasharray:none;stroke-opacity:1"
       d="m 536.78578,735.77158 c -1.15697,-0.11519 -1.87408,-0.26005 -2.7789,-0.56136 -3.26399,-1.08692 -5.83589,-3.65882 -6.92282,-6.92282 -0.40371,-1.21233 -0.56115,-2.18783 -0.56115,-3.47687 0,-1.29194 0.15683,-2.26103 0.56479,-3.48986 1.79216,-5.39823 7.52182,-8.54009 13.05381,-7.15804 1.48364,0.37066 3.05637,1.15454 4.23191,2.10926 2.21761,1.80107 3.61744,4.32402 4.013,7.23276 0.074,0.54429 0.0757,2.06017 0.003,2.58925 -0.35471,2.57598 -1.39091,4.69691 -3.15805,6.46406 -1.71923,1.71922 -3.84723,2.77918 -6.28394,3.13002 -0.44894,0.0646 -1.81947,0.11764 -2.16146,0.0836 z m 1.86877,-1.01506 c 3.02767,-0.33487 5.79128,-2.11295 7.41035,-4.76772 0.69845,-1.14526 1.17837,-2.54559 1.37344,-4.00748 0.0281,-0.21051 0.0511,-0.73737 0.0511,-1.17079 0,-1.18342 -0.13786,-2.04253 -0.50941,-3.17465 -0.72703,-2.21522 -2.28959,-4.17726 -4.29524,-5.39332 -2.29298,-1.39028 -5.07524,-1.79998 -7.70747,-1.13496 -3.47868,0.87887 -6.31761,3.7178 -7.19648,7.19647 -0.86153,3.41009 0.0709,6.94407 2.49459,9.45431 2.19661,2.27508 5.20011,3.34976 8.37914,2.99814 z"
       id="path3476"
       transform="scale(0.26458333)" />
  </g>
</svg>
