<?xml version="1.0" encoding="UTF-8" standalone="no"?>
<svg
   viewBox="0 0 20 20"
   version="1.1"
   id="svg4"
   sodipodi:docname="Header-Subscriptions-new-blue.svg"
   inkscape:version="1.1.1 (3bf5ae0d25, 2021-09-20)"
   xmlns:inkscape="http://www.inkscape.org/namespaces/inkscape"
   xmlns:sodipodi="http://sodipodi.sourceforge.net/DTD/sodipodi-0.dtd"
   xmlns="http://www.w3.org/2000/svg"
   xmlns:svg="http://www.w3.org/2000/svg">
  <defs
     id="defs8" />
  <sodipodi:namedview
     id="namedview6"
     pagecolor="#ffffff"
     bordercolor="#666666"
     borderopacity="1.0"
     inkscape:pageshadow="2"
     inkscape:pageopacity="0.0"
     inkscape:pagecheckerboard="0"
     showgrid="false"
     inkscape:zoom="40.6"
     inkscape:cx="9.9876847"
     inkscape:cy="9.9384236"
     inkscape:window-width="1920"
     inkscape:window-height="1121"
     inkscape:window-x="-9"
     inkscape:window-y="-9"
     inkscape:window-maximized="1"
     inkscape:current-layer="svg4" />
  <path
     d="M4.5 9.5l-4-2v5l4-2m2.714 1.48a1.994 1.994 0 1 0 3.26 1.778M15.5 16.5l-5.026-2.742m-3.26-1.778l3.26 1.778M4.5 10.5l2.714 1.48M15.5 3.5l-11 6m14-4l-2 2m0 5l2 2m-1.666-9.334C16.48 4.134 16.014 3.5 15.5 3.5c-1.105 0-2 2.91-2 6.5s.895 6.5 2 6.5c.513 0 .98-.634 1.334-1.666M19.5 10h-4"
     fill="none"
     stroke="#e35151"
     stroke-linecap="round"
     stroke-linejoin="round"
     id="path2" />
  <path
     style="fill:#22d1a5;stroke:#22b18d;stroke-width:0.03;stroke-miterlimit:4;stroke-dasharray:none"
     d="m 15.283251,16.9664 c -0.176903,-0.03327 -0.451286,-0.17591 -0.609282,-0.31673 -0.101763,-0.0907 -0.611727,-0.380866 -2.013599,-1.145725 -1.032528,-0.563346 -1.880378,-1.020802 -1.88411,-1.016568 -0.0037,0.0042 -0.03727,0.06866 -0.07452,0.143165 -0.24777,0.495579 -0.730459,0.947549 -1.2372814,1.15854 -0.5872867,0.244488 -1.2469244,0.258585 -1.831168,0.03913 C 7.2787463,15.695043 7.0406892,15.538292 6.7487685,15.245793 6.3953044,14.891629 6.2153756,14.575226 6.0793584,14.068639 c -0.074225,-0.276443 -0.075278,-0.822386 -0.00215,-1.112974 0.06168,-0.24509 0.1734465,-0.5244 0.2775266,-0.693552 0.040609,-0.066 0.073834,-0.128381 0.073834,-0.13863 0,-0.02182 -1.9037963,-1.06437 -1.9436357,-1.06437 -0.014813,0 -0.8937391,0.433432 -1.9531699,0.963182 l -1.92623762,0.963181 -0.14036325,-0.01015 c -0.2267438,-0.0164 -0.39928003,-0.170516 -0.44281711,-0.395537 -0.02637956,-0.136343 -0.02637956,-5.0232291 0,-5.159572 C 0.0658849,7.1951926 0.23842113,7.0410781 0.46516493,7.0246771 L 0.60552818,7.0145241 2.5355594,7.9796022 C 3.5970766,8.5103953 4.4833081,8.9399448 4.5049628,8.9341567 4.5266175,8.9283685 6.7927345,7.6970626 9.5407786,6.1979212 13.426399,4.0781975 14.567571,3.4451598 14.673733,3.3505395 c 0.61068,-0.5442898 1.399512,-0.4087924 1.963138,0.3372075 0.276885,0.3664783 0.6784,1.2430661 0.6784,1.4810857 0,0.3683242 -0.403815,0.6004523 -0.721096,0.4145131 C 16.456117,5.5024384 16.427913,5.4583027 16.295743,5.1163281 16.16499,4.7780205 16.063552,4.5724114 15.920804,4.3563457 15.816033,4.1977637 15.639905,4.0147783 15.592036,4.0147783 c -0.01297,0 -0.11784,0.051644 -0.233039,0.1147641 -0.171089,0.093743 -0.225054,0.1382596 -0.294623,0.2430388 -0.540855,0.8145858 -0.941578,2.5643501 -1.049032,4.5806208 -0.144371,2.708962 0.302044,5.549171 1.049032,6.674217 0.06957,0.104779 0.123534,0.149296 0.294623,0.243039 0.115199,0.06312 0.218103,0.114764 0.228676,0.114764 0.04768,0 0.232154,-0.188754 0.331668,-0.339367 0.144188,-0.218227 0.245296,-0.422962 0.376402,-0.762183 0.13217,-0.341975 0.160374,-0.38611 0.298432,-0.467018 0.317281,-0.185939 0.721096,0.04619 0.721096,0.414513 0,0.23802 -0.401515,1.114608 -0.6784,1.481086 -0.265538,0.351459 -0.585152,0.576508 -0.919357,0.647347 -0.183765,0.03895 -0.257219,0.0401 -0.434263,0.0068 z m -6.40572,-2.005863 c 0.258452,-0.06311 0.452504,-0.17679 0.6679446,-0.391293 0.184504,-0.183701 0.3560022,-0.44143 0.3560022,-0.535002 0,-0.02113 -0.5190687,-0.318358 -1.2979517,-0.743221 l -1.297952,-0.708005 -0.044738,0.05701 c -0.1542025,0.196517 -0.2650342,0.560257 -0.2650342,0.869822 0,0.986958 0.9094729,1.688099 1.881729,1.450685 z M 13.559414,14.5221 C 13.498062,14.308339 13.404093,13.91555 13.350594,13.649234 12.835462,11.084952 12.921996,7.6987741 13.559414,5.4779 13.620766,5.2641394 13.667965,5.0820322 13.664299,5.0732174 13.660634,5.0644026 11.62931,6.1637729 9.1502463,7.5162623 6.2675707,9.088948 4.6184421,9.9753406 4.5751232,9.9753517 4.5378695,9.9753616 4.5073892,9.9864532 4.5073892,10 c 0,0.01355 0.03048,0.02464 0.067734,0.02465 0.043319,1.1e-5 1.6924475,0.886404 4.5751231,2.45909 2.4790637,1.352489 4.5103877,2.451859 4.5140527,2.443045 0.0037,-0.0088 -0.04353,-0.190922 -0.104885,-0.404683 z M 2.6850897,10.862069 c 0.9216881,-0.460591 1.7032179,-0.837438 1.736733,-0.837438 0.033515,0 0.060936,-0.01108 0.060936,-0.02463 0,-0.013547 -0.027421,-0.024631 -0.060936,-0.024631 -0.033515,0 -0.8150449,-0.3768473 -1.736733,-0.8374385 C 1.7634014,8.6773399 1.0038768,8.3004926 0.99725724,8.3004926 c -0.00662,0 -0.0120356,0.7647783 -0.0120356,1.6995074 0,0.934729 0.005416,1.699507 0.0120356,1.699507 0.00662,0 0.76614416,-0.376847 1.68783246,-0.837438 z"
     id="path862" />
  <path
     style="fill:#22d1a5;stroke:#22b18d;stroke-width:0.03;stroke-miterlimit:4;stroke-dasharray:none"
     d="m 15.361699,10.467839 c -0.197488,-0.06006 -0.337336,-0.256545 -0.336663,-0.4730154 5.13e-4,-0.1650456 0.0732,-0.2988255 0.217442,-0.4002031 l 0.106593,-0.074916 H 17.5 19.650929 l 0.106592,0.074916 c 0.294313,0.206851 0.294319,0.6038895 1.2e-5,0.8107595 l -0.106581,0.07492 -2.109958,0.0043 c -1.160478,0.0024 -2.141161,-0.0052 -2.179295,-0.01677 z"
     id="path901" />
  <path
     style="fill:#22d1a5;stroke:#22b18d;stroke-width:0.03;stroke-miterlimit:4;stroke-dasharray:none"
     d="m 16.274198,7.9291357 c -0.196053,-0.1034864 -0.29832,-0.3450859 -0.239735,-0.566355 0.02588,-0.097734 0.139519,-0.2201365 1.092038,-1.1762286 0.619696,-0.622021 1.103403,-1.0879966 1.159647,-1.1171385 0.146275,-0.07579 0.374597,-0.055711 0.499882,0.043961 0.107002,0.085126 0.204118,0.2578959 0.204118,0.3631251 0,0.216891 -1.73e-4,0.2171111 -1.118672,1.3407354 -0.697189,0.7003902 -1.095477,1.0826473 -1.161272,1.114532 -0.129595,0.062802 -0.314154,0.061688 -0.436006,-0.00263 z"
     id="path940" />
  <path
     style="fill:#22d1a5;stroke:#22b18d;stroke-width:0.03;stroke-miterlimit:4;stroke-dasharray:none"
     d="m 18.275862,14.9282 c -0.04741,-0.02623 -0.564626,-0.527892 -1.149361,-1.114796 -0.952535,-0.956069 -1.06616,-1.078449 -1.092038,-1.176185 -0.08268,-0.312279 0.14432,-0.617515 0.459242,-0.617515 0.06547,0 0.160155,0.02122 0.216499,0.04853 0.06579,0.03189 0.464083,0.414142 1.161272,1.114532 1.118488,1.123625 1.118672,1.123845 1.118672,1.340736 0,0.105392 -0.09717,0.278041 -0.204591,0.363507 -0.07994,0.0636 -0.118041,0.07565 -0.25862,0.08174 -0.126727,0.0055 -0.184811,-0.0039 -0.251075,-0.04055 z"
     id="path979" />
</svg>
