<svg xmlns="http://www.w3.org/2000/svg" viewBox="0 0 16 16"><defs><style>.a{fill:#555}</style></defs><path class="a" d="M12 9.89h-2a.75.75 0 0 1 0-1.5h2a.75.75 0 0 1 0 1.5zm-8.62 3.97a3.39 3.39 0 1 1 0-6.78.75.75 0 1 1 0 1.5 1.89 1.89 0 1 0 0 3.78.75.75 0 0 1 0 1.5z"/><path class="a" d="M6 13.86a3.39 3.39 0 1 1 3.39-3.4A3.4 3.4 0 0 1 6 13.86zm0-5.28a1.89 1.89 0 1 0 1.89 1.88A1.89 1.89 0 0 0 6 8.58z"/><path class="a" d="M7 11.21a.75.75 0 0 1-.75-.75.24.24 0 0 0-.25-.24.75.75 0 0 1 0-1.5 1.74 1.74 0 0 1 1.74 1.74.75.75 0 0 1-.74.75zm3-2.63H3.38a.75.75 0 0 1 0-1.5H10c1 0 3.21-.19 3.21-1.9a1.89 1.89 0 0 0-1.91-1.89H4.7a.75.75 0 0 1 0-1.5h6.6a3.4 3.4 0 0 1 3.39 3.39c0 1.64-1.24 3.4-4.69 3.4z"/><path class="a" d="M10.64 4.62h-2a.75.75 0 0 1 0-1.5h2a.75.75 0 0 1 0 1.5z"/><path class="a" d="M4.7 8.58a3.4 3.4 0 1 1 3.39-3.4 3.4 3.4 0 0 1-3.39 3.4zm0-5.29a1.9 1.9 0 1 0 1.89 1.89A1.89 1.89 0 0 0 4.7 3.29z"/><path class="a" d="M5.69 5.93a.75.75 0 0 1-.75-.75A.23.23 0 0 0 4.7 5a.75.75 0 0 1 0-1.5 1.74 1.74 0 0 1 1.74 1.68.75.75 0 0 1-.75.75zm6.93 7.93H3.05a.75.75 0 0 1 0-1.5h9.57a1.89 1.89 0 1 0 0-3.78H6a.75.75 0 0 1 0-1.5h6.6a3.39 3.39 0 1 1 0 6.78zM10.31 3a.77.77 0 0 1-.53-.21.77.77 0 0 1 0-1.07L11.1.36a.75.75 0 0 1 1.06 1.06l-1.32 1.33a.77.77 0 0 1-.53.25z"/></svg>